# Blender 3.5.1
# www.blender.org
mtllib a-maze.mtl
o Cube
v 2.882533 0.954665 -2.618068
v 2.882533 -1.045335 -2.618068
v 2.882533 0.954665 -0.618068
v 2.882533 -1.045335 -0.618068
v 0.882533 0.954665 -2.618068
v 0.882533 -1.045335 -2.618068
v 0.882533 0.954665 -0.618068
v 0.882533 -1.045335 -0.618068
v 4.687358 0.954665 -2.618068
v 4.687358 -1.045335 -2.618068
v 4.687358 0.954665 -0.618068
v 4.687358 -1.045335 -0.618068
v 2.882533 0.954665 0.895998
v 2.882533 -1.045335 0.895998
v 4.687358 0.954665 0.895998
v 4.687358 -1.045335 0.895998
v 2.882533 0.954665 2.472180
v 2.882533 -1.045335 2.472180
v 4.687358 0.954665 2.472180
v 4.687358 -1.045335 2.472180
v 0.978997 0.954665 0.895998
v 0.978997 -1.045335 0.895998
v 0.978997 0.954665 2.472180
v 0.978997 -1.045335 2.472180
v -1.401220 0.563639 1.045181
v -1.170457 -1.396603 0.722379
v -1.172447 0.954665 2.472180
v -1.172447 -1.045335 2.472180
v -2.192344 0.478791 0.994875
v -1.961581 -1.481451 0.672073
v -1.969698 0.954665 2.472180
v -1.969698 -1.045335 2.472180
v -1.402848 0.579532 -3.967972
v -1.355164 0.174473 -4.034675
v -1.566324 0.562000 -3.978367
v -1.518640 0.156941 -4.045070
v 0.882533 -1.045335 -0.618068
v 0.882533 0.954665 -0.618068
v 2.882533 0.954665 -0.618068
v 2.882533 -1.045335 -0.618068
v 0.882533 -1.045335 -2.618068
v 0.882533 -1.045335 -0.618068
v 2.882533 -1.045335 -2.618068
v 0.882533 0.954665 -0.618068
v 0.882533 0.954665 -2.618068
v 2.882533 0.954665 -0.618068
v 2.882533 0.954665 -2.618068
v 2.882533 -1.045335 -0.618068
v 0.882533 -1.045335 -0.618068
v 0.882533 0.954665 -0.618068
v 2.882533 0.954665 -0.618068
v 2.882533 -1.045335 -0.618068
v 4.687358 1.951498 -0.618068
v 2.882533 1.951498 -0.618068
v 4.687358 1.951498 0.895998
v 2.882533 1.951498 0.895998
v 2.882533 1.951498 2.472180
v 0.978997 1.951498 0.895998
v 0.978997 1.951498 2.472180
v 2.882533 1.951498 -0.618068
v 0.882533 1.951498 -0.618068
v 2.882533 1.951498 -2.618068
v 0.882533 1.951498 -2.618068
vn -0.0000 1.0000 -0.0000
vn -0.0000 -0.0000 1.0000
vn -0.0000 -0.0000 -1.0000
vn 1.0000 -0.0000 -0.0000
vn -0.0000 -1.0000 -0.0000
vn -1.0000 -0.0000 -0.0000
vn 0.0768 -0.9915 0.1048
vn -0.0893 0.9885 -0.1219
vn -0.0079 0.0808 -0.9967
vn -0.9944 -0.0647 0.0831
vn -0.0424 0.9591 -0.2797
vn -0.9874 -0.0955 -0.1259
vn 0.0452 -0.9752 0.2164
vn 0.0447 0.1674 -0.9849
vn 0.1210 -0.9412 -0.3155
vn 0.9931 0.1169 -0.0000
vn -0.1068 0.9943 0.0032
vt 0.625000 0.500000
vt 0.375000 0.500000
vt 0.625000 0.750000
vt 0.375000 0.750000
vt 0.625000 0.250000
vt 0.375000 0.250000
vt 0.625000 0.000000
vt 0.875000 0.750000
vt 0.375000 0.000000
vt 0.125000 0.750000
vt 0.625000 0.500000
vt 0.375000 0.500000
vt 0.625000 0.750000
vt 0.375000 0.750000
vt 0.625000 0.750000
vt 0.375000 0.750000
vt 0.625000 0.750000
vt 0.375000 0.750000
vt 0.625000 0.750000
vt 0.375000 0.750000
vt 0.625000 0.750000
vt 0.375000 0.750000
vt 0.625000 0.750000
vt 0.375000 0.750000
vt 0.625000 0.750000
vt 0.375000 0.750000
vt 0.625000 0.750000
vt 0.375000 0.750000
vt 0.625000 0.750000
vt 0.375000 0.750000
vt 0.625000 0.750000
vt 0.375000 0.750000
vt 0.625000 0.750000
vt 0.375000 0.750000
vt 0.625000 0.750000
vt 0.375000 0.750000
vt 0.625000 0.750000
vt 0.375000 0.750000
vt 0.125000 0.750000
vt 0.375000 0.000000
vt 0.625000 0.000000
vt 0.875000 0.750000
vt 0.625000 0.750000
vt 0.375000 0.750000
vt 0.125000 0.500000
vt 0.375000 0.250000
vt 0.375000 0.000000
vt 0.125000 0.750000
vt 0.375000 0.500000
vt 0.625000 0.000000
vt 0.875000 0.750000
vt 0.625000 0.250000
vt 0.625000 0.750000
vt 0.625000 0.500000
vt 0.375000 0.750000
vt 0.375000 0.000000
vt 0.125000 0.750000
vt 0.375000 1.000000
vt 0.625000 0.000000
vt 0.625000 1.000000
vt 0.875000 0.750000
vt 0.625000 0.750000
vt 0.375000 0.750000
vt 0.625000 0.750000
vt 0.625000 0.750000
vt 0.625000 0.750000
vt 0.625000 0.750000
vt 0.625000 0.750000
vt 0.625000 0.750000
vt 0.625000 0.750000
vt 0.625000 0.750000
vt 0.625000 0.000000
vt 0.875000 0.750000
vt 0.625000 0.500000
vt 0.875000 0.500000
vt 0.625000 0.250000
s 0
usemtl Material
f 38/41/1 37/40/1 49/56/1 50/59/1
f 8/10/1 4/4/1 40/44/1 37/39/1
f 1/1/1 5/5/1 45/52/1 47/54/1
f 8/9/1 7/7/1 44/50/1 42/47/1
f 23/25/2 17/19/2 57/68/2 59/70/2
f 6/6/3 5/5/3 1/1/3 2/2/3
f 10/12/4 9/11/4 11/13/4 12/14/4
f 2/2/3 1/1/3 9/11/3 10/12/3
f 4/4/5 2/2/5 10/12/5 12/14/5
f 1/1/1 3/3/1 11/13/1 9/11/1
f 15/17/1 13/15/1 17/19/1 19/21/1
f 3/3/6 4/4/6 14/16/6 13/15/6
f 12/14/4 11/13/4 15/17/4 16/18/4
f 4/4/5 12/14/5 16/18/5 14/16/5
f 17/19/2 18/20/2 20/22/2 19/21/2
f 16/18/4 15/17/4 19/21/4 20/22/4
f 14/16/5 16/18/5 20/22/5 18/20/5
f 3/3/6 13/15/6 56/67/6 54/65/6
f 22/24/7 24/26/7 28/30/7 26/28/7
f 18/20/2 17/19/2 23/25/2 24/26/2
f 14/16/5 18/20/5 24/26/5 22/24/5
f 13/15/3 14/16/3 22/24/3 21/23/3
f 28/30/2 27/29/2 31/33/2 32/34/2
f 24/26/2 23/25/2 27/29/2 28/30/2
f 23/25/8 21/23/8 25/27/8 27/29/8
f 21/23/9 22/24/9 26/28/9 25/27/9
f 29/31/10 30/32/10 32/34/10 31/33/10
f 27/29/11 25/27/11 29/31/11 31/33/11
f 30/32/12 29/31/12 35/37/12 36/38/12
f 26/28/13 28/30/13 32/34/13 30/32/13
f 33/35/14 34/36/14 36/38/14 35/37/14
f 26/28/15 30/32/15 36/38/15 34/36/15
f 25/27/16 26/28/16 34/36/16 33/35/16
f 29/31/17 25/27/17 33/35/17 35/37/17
f 37/39/1 40/44/1 52/63/1 49/57/1
f 3/3/1 7/8/1 38/42/1 39/43/1
f 4/4/1 3/3/1 39/43/1 40/44/1
f 7/7/1 8/9/1 37/40/1 38/41/1
f 11/13/3 3/3/3 54/65/3 53/64/3
f 42/47/6 44/50/6 45/52/6 41/46/6
f 41/45/5 43/49/5 48/55/5 42/48/5
f 52/63/2 51/62/2 50/60/2 49/58/2
f 3/3/1 1/1/1 47/54/1 46/53/1
f 2/2/1 4/4/1 48/55/1 43/49/1
f 40/44/1 39/43/1 51/62/1 52/63/1
f 6/6/1 2/2/1 43/49/1 41/46/1
f 4/4/1 8/10/1 42/48/1 48/55/1
f 5/5/1 6/6/1 41/46/1 45/52/1
f 39/43/1 38/42/1 50/61/1 51/62/1
f 7/8/1 3/3/1 46/53/1 44/51/1
f 53/64/1 54/65/1 56/67/1 55/66/1
f 57/68/1 56/67/1 58/69/1 59/70/1
f 62/74/1 63/75/1 61/73/1 60/71/1
f 21/23/6 23/25/6 59/70/6 58/69/6
f 15/17/4 11/13/4 53/64/4 55/66/4
f 45/52/6 44/50/6 61/72/6 63/76/6
f 17/19/4 13/15/4 56/67/4 57/68/4
f 44/51/2 46/53/2 60/71/2 61/73/2
f 47/54/3 45/52/3 63/76/3 62/74/3
f 13/15/3 21/23/3 58/69/3 56/67/3
f 13/15/2 15/17/2 55/66/2 56/67/2
f 46/53/4 47/54/4 62/74/4 60/71/4
